# xmcd
#
# Track frame offsets:
#	150
#	14874
#	27303
#	44206
#	58430
#	74639
#	89615
#	104197
#	120627
#	136660
#	154171
#	168150
#	185040
#	199699
#	214654
#	229521
#	245479
#	259639
#	275935
#	293996
#
# Disc length: 4108 seconds
# Revision: 1
# Processed by: cddbd v1.5.2PL0 Copyright (c) Steve Scherf et al.
# Submitted via: dBpowerAMP V12.0
#
DISCID=46100a14
DTITLE=Lasse Stefanz - Vår Bästa Country
DYEAR=2012
DGENRE=Swedish Country
TTITLE0=När Countryn Kom Till Skåne
TTITLE1=Saknar Dig
TTITLE2=Tänk På Mig Ibland
TTITLE3=More Than I Can Say
TTITLE4=Öppna Dina Ögon
TTITLE5=Du Vinner Igen
TTITLE6=Är Det Kärlek Du Behöver
TTITLE7=Dagen Går Mot Kväll
TTITLE8=Båten Till Köpenhamn Med Micke Andersen
TTITLE9=En Man Som Han
TTITLE10=En Ring På Ditt Finger
TTITLE11=Ge Mej En Ros
TTITLE12=Månen Över Uppland
TTITLE13=Låt En Morgon Vakna
TTITLE14=Det Kanske Är Ditt Hjärtas Fel
TTITLE15=Emelie
TTITLE16=Vagabond
TTITLE17=När Inte Himlen Är Så Blå
TTITLE18=Hon Tror Hon Vet
TTITLE19=Österlensvisan
EXTD=
EXTT0=
EXTT1=
EXTT2=
EXTT3=
EXTT4=
EXTT5=
EXTT6=
EXTT7=
EXTT8=
EXTT9=
EXTT10=
EXTT11=
EXTT12=
EXTT13=
EXTT14=
EXTT15=
EXTT16=
EXTT17=
EXTT18=
EXTT19=
PLAYORDER=
